<svg width="851" height="249" xmlns="http://www.w3.org/2000/svg" xmlns:xlink="http://www.w3.org/1999/xlink" xml:space="preserve" overflow="hidden"><defs><clipPath id="clip0"><rect x="610" y="365" width="851" height="249"/></clipPath></defs><g clip-path="url(#clip0)" transform="translate(-610 -365)"><text font-family="Arial,Arial_MSFontService,sans-serif" font-weight="400" font-size="55" transform="matrix(1 0 0 1 1052.73 436)">R<tspan font-size="37" x="39.5313" y="13">2</tspan><tspan font-size="55" x="60.1563" y="0">C</tspan><tspan font-size="37" x="99.6875" y="13">2</tspan><tspan font-size="55" x="166.146" y="0">W</tspan><tspan font-size="37" x="218.281" y="13">O</tspan><tspan font-size="55" x="134.922" y="1">-</tspan><tspan font-size="55" x="273.854" y="-1">C</tspan><tspan font-size="37" x="313.385" y="12">3</tspan><tspan font-size="55" x="249.792" y="1">-</tspan></text><path d="M633 551 654.771 551.573" stroke="#000000" stroke-width="2.29167" stroke-miterlimit="8" fill="none" fill-rule="evenodd"/><path d="M721 551 742.771 551.573" stroke="#000000" stroke-width="2.29167" stroke-miterlimit="8" fill="none" fill-rule="evenodd"/><path d="M671 524C680.389 524 688 536.312 688 551.5" stroke="#000000" stroke-width="2.29167" stroke-miterlimit="8" fill="none" fill-rule="evenodd"/><path d="M16.9998 0C26.3886-7.00223e-15 33.9997 12.3122 33.9997 27.5" stroke="#000000" stroke-width="2.29167" stroke-miterlimit="8" fill="none" fill-rule="evenodd" transform="matrix(-1 0 0 1 688 524)"/><path d="M704.5 524C713.612 524 721 536.312 721 551.5" stroke="#000000" stroke-width="2.29167" stroke-miterlimit="8" fill="none" fill-rule="evenodd"/><path d="M16.5 0C25.6127-7.00223e-15 33 12.3122 33 27.5" stroke="#000000" stroke-width="2.29167" stroke-miterlimit="8" fill="none" fill-rule="evenodd" transform="matrix(-1 0 0 1 721 524)"/><path d="M851.313 547.573 841 547" stroke="#000000" stroke-width="2.29167" stroke-miterlimit="8" fill="none" fill-rule="evenodd"/><path d="M0 0 8.02083 31.5106" stroke="#000000" stroke-width="2.29167" stroke-miterlimit="8" fill="none" fill-rule="evenodd" transform="matrix(-1 0 0 1 840.021 547)"/><path d="M0 0 55 16.6148" stroke="#000000" stroke-width="2.29167" stroke-miterlimit="8" fill="none" fill-rule="evenodd" transform="matrix(-6.12323e-17 -1 -1 6.12323e-17 832.615 580)"/><path d="M0 0 17.1875 55" stroke="#000000" stroke-width="2.29167" stroke-miterlimit="8" fill="none" fill-rule="evenodd" transform="matrix(-1 0 0 1 816.187 526)"/><path d="M0 0 55 16.6144" stroke="#000000" stroke-width="2.29167" stroke-miterlimit="8" fill="none" fill-rule="evenodd" transform="matrix(-6.12323e-17 -1 -1 6.12323e-17 798.615 581)"/><path d="M781.594 526 773 553.5" stroke="#000000" stroke-width="2.29167" stroke-miterlimit="8" fill="none" fill-rule="evenodd"/><path d="M774.021 551.573 766 551" stroke="#000000" stroke-width="2.29167" stroke-miterlimit="8" fill="none" fill-rule="evenodd"/><path d="M610 551 632.344 551" stroke="#000000" stroke-width="2.29167" stroke-miterlimit="8" fill="none" fill-rule="evenodd"/><path d="M723 551 769.406 551" stroke="#000000" stroke-width="2.29167" stroke-miterlimit="8" fill="none" fill-rule="evenodd"/><path d="M889 584 935.979 584.573" stroke="#000000" stroke-width="2.29167" stroke-miterlimit="8" fill="none" fill-rule="evenodd"/><path d="M936 612 936.573 557" stroke="#000000" stroke-width="2.29167" stroke-miterlimit="8" fill="none" fill-rule="evenodd"/><path d="M952 612 952.573 557" stroke="#000000" stroke-width="2.29167" stroke-miterlimit="8" fill="none" fill-rule="evenodd"/><path d="M952 584 998.979 584.573" stroke="#000000" stroke-width="2.29167" stroke-miterlimit="8" fill="none" fill-rule="evenodd"/><path d="M0 0 24.0625 0.000360892" stroke="#000000" stroke-width="2.29167" stroke-miterlimit="8" fill="none" fill-rule="evenodd" transform="matrix(-1 0 0 1 999.062 513)"/><path d="M0 0 7.4084 29.1052" stroke="#000000" stroke-width="2.29167" stroke-miterlimit="8" fill="none" fill-rule="evenodd" transform="matrix(-1 0 0 1 974.408 513)"/><path d="M0 0 55.0004 16.6148" stroke="#000000" stroke-width="2.29167" stroke-miterlimit="8" fill="none" fill-rule="evenodd" transform="matrix(-6.12323e-17 -1 -1 6.12323e-17 966.615 544)"/><path d="M0 0 17.1875 55.0004" stroke="#000000" stroke-width="2.29167" stroke-miterlimit="8" fill="none" fill-rule="evenodd" transform="matrix(-1 0 0 1 950.187 489)"/><path d="M0 0 55.0004 16.6144" stroke="#000000" stroke-width="2.29167" stroke-miterlimit="8" fill="none" fill-rule="evenodd" transform="matrix(-6.12323e-17 -1 -1 6.12323e-17 932.615 544.001)"/><path d="M0 0 7.73428 24.75" stroke="#000000" stroke-width="2.29167" stroke-miterlimit="8" fill="none" fill-rule="evenodd" transform="matrix(-1 0 0 1 915.734 489)"/><path d="M0 0 19.4795 0.000360892" stroke="#000000" stroke-width="2.29167" stroke-miterlimit="8" fill="none" fill-rule="evenodd" transform="matrix(-1 0 0 1 908.479 513)"/><path d="M889 512 889 584.187" stroke="#000000" stroke-width="2.29167" stroke-miterlimit="8" fill="none" fill-rule="evenodd"/><path d="M999 512 999 584.187" stroke="#000000" stroke-width="2.29167" stroke-miterlimit="8" fill="none" fill-rule="evenodd"/><path d="M842 547 888.406 547" stroke="#000000" stroke-width="2.29167" stroke-miterlimit="8" fill="none" fill-rule="evenodd"/><path d="M999 548 1045.41 548" stroke="#000000" stroke-width="2.29167" stroke-miterlimit="8" fill="none" fill-rule="evenodd"/><text font-family="Arial,Arial_MSFontService,sans-serif" font-weight="400" font-size="55" transform="matrix(1 0 0 1 1215.5 567)">W<tspan font-size="37" x="52.1355" y="13">O</tspan></text><path d="M1300 549 1346.98 549.573" stroke="#000000" stroke-width="2.29167" stroke-miterlimit="8" fill="none" fill-rule="evenodd"/><path d="M1347 578 1347.57 523" stroke="#000000" stroke-width="2.29167" stroke-miterlimit="8" fill="none" fill-rule="evenodd"/><path d="M1362 578 1362.57 523" stroke="#000000" stroke-width="2.29167" stroke-miterlimit="8" fill="none" fill-rule="evenodd"/><path d="M1363 549 1409.98 549.573" stroke="#000000" stroke-width="2.29167" stroke-miterlimit="8" fill="none" fill-rule="evenodd"/><text font-family="Arial,Arial_MSFontService,sans-serif" font-weight="400" font-size="55" transform="matrix(1 0 0 1 672.318 436)">L<tspan font-size="55" x="107.136" y="0">R</tspan><tspan font-size="37" x="146.667" y="13">Ω</tspan><tspan font-size="55" x="214.271" y="0">R</tspan><tspan font-size="37" x="253.802" y="13">1</tspan><tspan font-size="55" x="274.427" y="0">C</tspan><tspan font-size="37" x="313.959" y="13">1</tspan><tspan font-size="55" x="61.0159" y="0">-</tspan><tspan font-size="55" x="179.61" y="0">-</tspan><tspan font-size="55" x="346.328" y="0">-</tspan></text><path d="M1053 585 1099.98 585.573" stroke="#000000" stroke-width="2.29167" stroke-miterlimit="8" fill="none" fill-rule="evenodd"/><path d="M1100 613 1100.57 558" stroke="#000000" stroke-width="2.29167" stroke-miterlimit="8" fill="none" fill-rule="evenodd"/><path d="M1115 613 1115.57 558" stroke="#000000" stroke-width="2.29167" stroke-miterlimit="8" fill="none" fill-rule="evenodd"/><path d="M1116 585 1162.98 585.573" stroke="#000000" stroke-width="2.29167" stroke-miterlimit="8" fill="none" fill-rule="evenodd"/><path d="M0 0 24.0625 0.000360892" stroke="#000000" stroke-width="2.29167" stroke-miterlimit="8" fill="none" fill-rule="evenodd" transform="matrix(-1 0 0 1 1163.06 514)"/><path d="M0 0 7.4084 29.1052" stroke="#000000" stroke-width="2.29167" stroke-miterlimit="8" fill="none" fill-rule="evenodd" transform="matrix(-1 0 0 1 1138.41 513)"/><path d="M0 0 55.0004 16.6148" stroke="#000000" stroke-width="2.29167" stroke-miterlimit="8" fill="none" fill-rule="evenodd" transform="matrix(-6.12323e-17 -1 -1 6.12323e-17 1130.61 545)"/><path d="M0 0 17.1875 55.0004" stroke="#000000" stroke-width="2.29167" stroke-miterlimit="8" fill="none" fill-rule="evenodd" transform="matrix(-1 0 0 1 1114.19 490)"/><path d="M0 0 55.0004 16.6144" stroke="#000000" stroke-width="2.29167" stroke-miterlimit="8" fill="none" fill-rule="evenodd" transform="matrix(-6.12323e-17 -1 -1 6.12323e-17 1096.61 545)"/><path d="M0 0 7.73428 24.75" stroke="#000000" stroke-width="2.29167" stroke-miterlimit="8" fill="none" fill-rule="evenodd" transform="matrix(-1 0 0 1 1079.73 490)"/><path d="M0 0 19.4795 0.000360892" stroke="#000000" stroke-width="2.29167" stroke-miterlimit="8" fill="none" fill-rule="evenodd" transform="matrix(-1 0 0 1 1072.48 514)"/><path d="M1053 513 1053 585.187" stroke="#000000" stroke-width="2.29167" stroke-miterlimit="8" fill="none" fill-rule="evenodd"/><path d="M1163 513 1163 585.187" stroke="#000000" stroke-width="2.29167" stroke-miterlimit="8" fill="none" fill-rule="evenodd"/><path d="M1005 548 1051.41 548" stroke="#000000" stroke-width="2.29167" stroke-miterlimit="8" fill="none" fill-rule="evenodd"/><path d="M1163 549 1209.41 549" stroke="#000000" stroke-width="2.29167" stroke-miterlimit="8" fill="none" fill-rule="evenodd"/></g></svg>